<svg xmlns="http://www.w3.org/2000/svg" xmlns:xlink="http://www.w3.org/1999/xlink" width="200" zoomAndPan="magnify" viewBox="0 0 375 374.999991" height="200" preserveAspectRatio="xMidYMid meet" version="1.0"><defs><g/><clipPath id="id1"><path d="M 71.96875 71.96875 L 302.96875 71.96875 L 302.96875 302.96875 L 71.96875 302.96875 Z M 71.96875 71.96875 " clip-rule="nonzero"/></clipPath><clipPath id="id2"><path d="M 127.742188 150 L 162 150 L 162 208 L 127.742188 208 Z M 127.742188 150 " clip-rule="nonzero"/></clipPath><clipPath id="id3"><path d="M 213 150 L 246.992188 150 L 246.992188 208 L 213 208 Z M 213 150 " clip-rule="nonzero"/></clipPath><clipPath id="id4"><path d="M 167 130 L 212 130 L 212 228.574219 L 167 228.574219 Z M 167 130 " clip-rule="nonzero"/></clipPath></defs><g clip-path="url(#id1)"><path fill="#d9d9d9" d="M 187.46875 71.96875 C 123.679688 71.96875 71.96875 123.679688 71.96875 187.46875 C 71.96875 251.253906 123.679688 302.96875 187.46875 302.96875 C 251.253906 302.96875 302.96875 251.253906 302.96875 187.46875 C 302.96875 123.679688 251.253906 71.96875 187.46875 71.96875 " fill-opacity="1" fill-rule="nonzero"/></g><g clip-path="url(#id2)"><path fill="#231f20" d="M 157.832031 207.859375 C 156.910156 207.859375 155.988281 207.507812 155.285156 206.800781 L 127.890625 179.316406 L 155.285156 151.835938 C 156.691406 150.421875 158.972656 150.421875 160.378906 151.835938 C 161.785156 153.246094 161.785156 155.535156 160.378906 156.945312 L 138.078125 179.316406 L 160.378906 201.691406 C 161.785156 203.101562 161.785156 205.390625 160.378906 206.800781 C 159.675781 207.507812 158.753906 207.859375 157.832031 207.859375 " fill-opacity="1" fill-rule="nonzero"/></g><g clip-path="url(#id3)"><path fill="#231f20" d="M 216.917969 207.859375 C 215.996094 207.859375 215.074219 207.507812 214.367188 206.800781 C 212.960938 205.390625 212.960938 203.101562 214.367188 201.691406 L 236.667969 179.316406 L 214.367188 156.945312 C 212.960938 155.535156 212.960938 153.246094 214.367188 151.835938 C 215.777344 150.421875 218.058594 150.421875 219.464844 151.835938 L 246.859375 179.316406 L 219.464844 206.800781 C 218.761719 207.507812 217.839844 207.859375 216.917969 207.859375 " fill-opacity="1" fill-rule="nonzero"/></g><g clip-path="url(#id4)"><path fill="#231f20" d="M 171.210938 228.582031 C 170.765625 228.582031 170.308594 228.5 169.871094 228.320312 C 168.023438 227.578125 167.128906 225.472656 167.871094 223.621094 L 204.449219 132.320312 C 205.191406 130.46875 207.289062 129.570312 209.136719 130.316406 C 210.980469 131.058594 211.878906 133.164062 211.132812 135.015625 L 174.554688 226.316406 C 173.988281 227.726562 172.640625 228.582031 171.210938 228.582031 " fill-opacity="1" fill-rule="nonzero"/></g><g fill="#545454" fill-opacity="1"><g transform="translate(94.671726, 219.308946)"><g><path d="M 18.507812 7.558594 L 12.859375 -5.019531 L 10.34375 -3.890625 L 12.605469 1.140625 L 2.542969 5.660156 L 3.671875 8.175781 L 13.734375 3.65625 L 15.992188 8.6875 Z M 18.507812 7.558594 "/></g></g></g><g fill="#545454" fill-opacity="1"><g transform="translate(102.309772, 235.670756)"><g><path d="M 19.574219 4.0625 L 13.300781 -5.007812 C 12.4375 -6.253906 10.710938 -6.570312 9.464844 -5.707031 L 2.660156 -1 C 1.414062 -0.140625 1.097656 1.585938 1.960938 2.835938 L 8.234375 11.90625 L 10.503906 10.339844 L 4.230469 1.265625 L 6.496094 -0.300781 L 12.769531 8.769531 L 15.039062 7.199219 L 8.765625 -1.871094 L 11.03125 -3.441406 L 17.308594 5.632812 Z M 19.574219 4.0625 "/></g></g></g><g fill="#545454" fill-opacity="1"><g transform="translate(112.798442, 250.368922)"><g><path d="M 10.265625 10.207031 L 12.210938 8.253906 L 4.386719 0.476562 L 10.222656 -5.390625 L 18.042969 2.386719 L 19.988281 0.433594 L 12.167969 -7.34375 C 11.089844 -8.414062 9.335938 -8.410156 8.265625 -7.335938 L 2.433594 -1.46875 C 1.363281 -0.394531 1.367188 1.359375 2.445312 2.429688 Z M 10.265625 10.207031 "/></g></g></g><g fill="#545454" fill-opacity="1"><g transform="translate(125.78728, 262.912351)"><g><path d="M 14.34375 -0.214844 L 7.515625 -4.882812 L 10.625 -9.4375 L 8.351562 -10.992188 L 0.570312 0.390625 L 2.84375 1.945312 L 5.957031 -2.609375 L 12.789062 2.0625 L 9.675781 6.613281 L 11.953125 8.167969 L 19.734375 -3.214844 L 17.457031 -4.769531 Z M 14.34375 -0.214844 "/></g></g></g><g fill="#545454" fill-opacity="1"><g transform="translate(140.71133, 272.5637)"><g/></g></g><g fill="#545454" fill-opacity="1"><g transform="translate(149.848639, 277.154093)"><g><path d="M 18.042969 -8.613281 L 7.554688 -12.035156 C 6.113281 -12.507812 4.550781 -11.714844 4.078125 -10.273438 L 3.222656 -7.648438 C 2.753906 -6.207031 3.546875 -4.644531 4.988281 -4.171875 L 12.851562 -1.605469 L 11.996094 1.015625 L 1.511719 -2.40625 L 0.65625 0.214844 L 11.140625 3.636719 C 12.582031 4.109375 14.148438 3.3125 14.617188 1.871094 L 15.472656 -0.75 C 15.945312 -2.191406 15.152344 -3.753906 13.707031 -4.226562 L 5.84375 -6.792969 L 6.699219 -9.414062 L 17.1875 -5.992188 Z M 18.042969 -8.613281 "/></g></g></g><g fill="#545454" fill-opacity="1"><g transform="translate(167.094044, 282.506063)"><g><path d="M 11.617188 1.550781 C 13.136719 1.75 14.515625 0.667969 14.714844 -0.820312 L 15.808594 -9.019531 C 16.007812 -10.523438 14.941406 -11.917969 13.441406 -12.117188 L 5.238281 -13.210938 C 3.734375 -13.410156 2.34375 -12.347656 2.140625 -10.84375 L 1.046875 -2.640625 C 0.847656 -1.140625 1.914062 0.253906 3.417969 0.457031 Z M 4.875 -10.476562 L 13.074219 -9.382812 L 11.980469 -1.183594 L 3.78125 -2.277344 Z M 4.875 -10.476562 "/></g></g></g><g fill="#545454" fill-opacity="1"><g transform="translate(185.025561, 284.629602)"><g><path d="M 14.457031 -0.730469 L 14.320312 -3.484375 L 3.304688 -2.929688 L 2.746094 -13.945312 L -0.0078125 -13.804688 L 0.550781 -2.789062 C 0.625 -1.273438 1.929688 -0.0976562 3.441406 -0.175781 Z M 14.457031 -0.730469 "/></g></g></g><g fill="#545454" fill-opacity="1"><g transform="translate(203.044035, 283.453687)"><g><path d="M 11.402344 -2.710938 C 12.878906 -3.0625 13.796875 -4.558594 13.445312 -6.03125 L 10.894531 -16.765625 L 8.210938 -16.125 L 10.761719 -5.394531 L 2.714844 -3.480469 L 0.164062 -14.210938 L -2.519531 -13.574219 L 0.03125 -2.84375 C 0.382812 -1.367188 1.878906 -0.445312 3.351562 -0.796875 Z M 11.402344 -2.710938 "/></g></g></g><g fill="#545454" fill-opacity="1"><g transform="translate(220.54746, 279.017654)"><g><path d="M 7.660156 -18.464844 L -4.949219 -12.886719 L -3.832031 -10.367188 L 1.210938 -12.597656 L 5.675781 -2.511719 L 8.195312 -3.625 L 3.734375 -13.714844 L 8.777344 -15.945312 Z M 7.660156 -18.464844 "/></g></g></g><g fill="#545454" fill-opacity="1"><g transform="translate(236.950994, 271.469704)"><g><path d="M 11.953125 -8.167969 L 10.394531 -10.445312 L 5.84375 -7.335938 L 1.175781 -14.164062 L 5.726562 -17.277344 L 4.171875 -19.550781 L -7.210938 -11.773438 L -5.65625 -9.496094 L -1.101562 -12.609375 L 3.566406 -5.777344 L -0.988281 -2.664062 L 0.570312 -0.390625 Z M 11.953125 -8.167969 "/></g></g></g><g fill="#545454" fill-opacity="1"><g transform="translate(251.706626, 261.062001)"><g><path d="M 8.308594 -8.265625 C 9.398438 -9.347656 9.378906 -11.101562 8.320312 -12.164062 L 2.488281 -18.03125 C 1.417969 -19.105469 -0.335938 -19.109375 -1.414062 -18.039062 L -7.277344 -12.207031 C -8.355469 -11.136719 -8.359375 -9.382812 -7.289062 -8.308594 L -1.457031 -2.441406 C -0.386719 -1.367188 1.367188 -1.359375 2.445312 -2.429688 Z M -5.335938 -10.25 L 0.53125 -16.085938 L 6.367188 -10.21875 L 0.5 -4.386719 Z M -5.335938 -10.25 "/></g></g></g><g fill="#545454" fill-opacity="1"><g transform="translate(264.321283, 248.142319)"><g><path d="M 1.960938 -2.835938 L -5.507812 -8 L 6.550781 -10.199219 C 6.910156 -10.265625 7.234375 -10.460938 7.449219 -10.773438 C 7.882812 -11.398438 7.726562 -12.261719 7.101562 -12.691406 L -3.105469 -19.75 L -4.671875 -17.480469 L 2.796875 -12.316406 L -9.265625 -10.117188 C -9.625 -10.050781 -9.949219 -9.855469 -10.164062 -9.542969 C -10.59375 -8.921875 -10.4375 -8.058594 -9.8125 -7.625 L 0.390625 -0.566406 Z M 1.960938 -2.835938 "/></g></g></g><g fill="#545454" fill-opacity="1"><g transform="translate(274.373554, 233.142314)"><g><path d="M -6.648438 -18.855469 L -11.167969 -8.792969 C -11.789062 -7.410156 -11.164062 -5.769531 -9.78125 -5.148438 L -7.265625 -4.019531 C -5.878906 -3.398438 -4.242188 -4.019531 -3.621094 -5.402344 L -0.230469 -12.949219 L 2.285156 -11.820312 L -2.234375 -1.757812 L 0.28125 -0.628906 L 4.800781 -10.691406 C 5.421875 -12.074219 4.796875 -13.714844 3.414062 -14.335938 L 0.898438 -15.464844 C -0.484375 -16.085938 -2.125 -15.464844 -2.746094 -14.082031 L -6.136719 -6.535156 L -8.652344 -7.664062 L -4.132812 -17.726562 Z M -6.648438 -18.855469 "/></g></g></g><g fill="#545454" fill-opacity="1"><g transform="translate(102.615958, 171.949693)"><g><path d="M -9.25 -17.722656 L -13.058594 -4.472656 L -10.410156 -3.710938 L -8.886719 -9.011719 L 1.714844 -5.960938 L 2.476562 -8.613281 L -8.125 -11.660156 L -6.597656 -16.960938 Z M -9.25 -17.722656 "/></g></g></g><g fill="#545454" fill-opacity="1"><g transform="translate(107.043388, 156.771274)"><g><path d="M -2.164062 -14.179688 L -5.863281 -6.78125 L -10.796875 -9.242188 L -12.027344 -6.777344 L 0.308594 -0.617188 L 1.539062 -3.082031 L -3.394531 -5.546875 L 0.300781 -12.949219 L 5.234375 -10.484375 L 6.46875 -12.953125 L -5.867188 -19.113281 L -7.101562 -16.644531 Z M -2.164062 -14.179688 "/></g></g></g><g fill="#545454" fill-opacity="1"><g transform="translate(114.15968, 142.652309)"><g><path d="M 0.453125 -14.339844 L -4.53125 -7.734375 L -8.933594 -11.054688 L -10.59375 -8.851562 L -6.191406 -5.53125 C -4.980469 -4.617188 -3.242188 -4.863281 -2.328125 -6.074219 L 2.652344 -12.679688 L 4.855469 -11.015625 L -1.785156 -2.210938 L 0.414062 -0.550781 L 7.058594 -9.355469 C 7.96875 -10.566406 7.726562 -12.304688 6.515625 -13.21875 L -2.292969 -19.859375 L -3.953125 -17.660156 Z M 0.453125 -14.339844 "/></g></g></g><g fill="#545454" fill-opacity="1"><g transform="translate(123.727079, 130.064555)"><g><path d="M 2.542969 -2.328125 L -3.59375 -9.027344 L 8.65625 -8.488281 C 9.019531 -8.472656 9.378906 -8.589844 9.660156 -8.847656 C 10.21875 -9.359375 10.257812 -10.238281 9.742188 -10.796875 L 1.363281 -19.945312 L -0.671875 -18.082031 L 5.464844 -11.386719 L -6.785156 -11.921875 C -7.148438 -11.9375 -7.507812 -11.820312 -7.789062 -11.5625 C -8.347656 -11.050781 -8.386719 -10.175781 -7.875 -9.617188 L 0.507812 -0.464844 Z M 2.542969 -2.328125 "/></g></g></g><g fill="#545454" fill-opacity="1"><g transform="translate(135.425899, 119.428566)"><g><path d="M 4.96875 -19.363281 L 2.164062 -17.609375 C 1.84375 -17.410156 1.621094 -17.109375 1.535156 -16.730469 L -0.0859375 -9.699219 L -1.460938 -8.84375 L -4.382812 -13.519531 L -6.722656 -12.058594 L 0.585938 -0.367188 L 2.921875 -1.828125 L 0 -6.503906 L 1.375 -7.363281 L 8.402344 -5.738281 C 8.785156 -5.652344 9.148438 -5.71875 9.472656 -5.917969 L 12.277344 -7.671875 L 10.816406 -10.011719 L 8.476562 -8.550781 L 2.777344 -9.863281 L 4.09375 -15.566406 L 6.429688 -17.027344 Z M 4.96875 -19.363281 "/></g></g></g><g fill="#545454" fill-opacity="1"><g transform="translate(149.188142, 111.217213)"><g/></g></g><g fill="#545454" fill-opacity="1"><g transform="translate(156.86043, 107.598056)"><g><path d="M 11.28125 -3.175781 C 12.742188 -3.589844 13.597656 -5.121094 13.1875 -6.578125 L 10.195312 -17.195312 L 7.542969 -16.449219 L 10.53125 -5.832031 L 2.570312 -3.589844 L -0.421875 -14.207031 L -3.074219 -13.457031 L -0.0859375 -2.839844 C 0.328125 -1.382812 1.859375 -0.523438 3.316406 -0.933594 Z M 11.28125 -3.175781 "/></g></g></g><g fill="#545454" fill-opacity="1"><g transform="translate(172.095144, 103.368425)"><g><path d="M 3.433594 -0.316406 L 2.601562 -9.359375 L 12.027344 -1.519531 C 12.308594 -1.285156 12.667969 -1.164062 13.042969 -1.195312 C 13.800781 -1.265625 14.359375 -1.941406 14.289062 -2.695312 L 13.15625 -15.054688 L 10.410156 -14.800781 L 11.242188 -5.757812 L 1.816406 -13.597656 C 1.535156 -13.832031 1.175781 -13.953125 0.800781 -13.917969 C 0.0429688 -13.851562 -0.515625 -13.175781 -0.449219 -12.421875 L 0.6875 -0.0625 Z M 3.433594 -0.316406 "/></g></g></g><g fill="#545454" fill-opacity="1"><g transform="translate(187.845252, 101.982514)"><g><path d="M 14.417969 1.324219 L 14.667969 -1.421875 L 3.683594 -2.429688 L 4.691406 -13.414062 L 1.945312 -13.667969 L 0.9375 -2.683594 C 0.800781 -1.171875 1.921875 0.175781 3.433594 0.316406 Z M 14.417969 1.324219 "/></g></g></g><g fill="#545454" fill-opacity="1"><g transform="translate(203.584517, 103.48665)"><g><path d="M 13.933594 3.925781 L 14.683594 1.269531 L 9.375 -0.222656 L 11.617188 -8.1875 L 16.925781 -6.691406 L 17.671875 -9.347656 L 4.402344 -13.085938 L 3.652344 -10.429688 L 8.960938 -8.933594 L 6.71875 -0.972656 L 1.410156 -2.46875 L 0.664062 0.1875 Z M 13.933594 3.925781 "/></g></g></g><g fill="#545454" fill-opacity="1"><g transform="translate(218.787045, 107.830559)"><g><path d="M 9.183594 -10.847656 C 7.824219 -11.515625 6.160156 -10.953125 5.492188 -9.589844 L 0.617188 0.304688 L 3.09375 1.523438 L 7.964844 -8.371094 L 10.441406 -7.152344 L 5.566406 2.742188 L 8.039062 3.960938 L 12.914062 -5.9375 L 15.386719 -4.71875 L 10.515625 5.179688 L 12.988281 6.394531 L 17.859375 -3.5 C 18.53125 -4.859375 17.964844 -6.519531 16.605469 -7.191406 Z M 9.183594 -10.847656 "/></g></g></g><g fill="#545454" fill-opacity="1"><g transform="translate(232.944921, 114.869112)"><g><path d="M 11.605469 8.652344 L 13.253906 6.441406 L 8.832031 3.144531 L 13.777344 -3.484375 L 18.199219 -0.191406 L 19.847656 -2.402344 L 8.792969 -10.640625 L 7.144531 -8.429688 L 11.566406 -5.132812 L 6.621094 1.496094 L 2.199219 -1.796875 L 0.550781 0.410156 Z M 11.605469 8.652344 "/></g></g></g><g fill="#545454" fill-opacity="1"><g transform="translate(245.585101, 124.367148)"><g><path d="M 19.953125 1.253906 L 10.585938 -8.863281 L 8.5625 -6.988281 L 12.308594 -2.941406 L 4.214844 4.550781 L 6.089844 6.574219 L 14.183594 -0.921875 L 17.929688 3.125 Z M 19.953125 1.253906 "/></g></g></g><g fill="#545454" fill-opacity="1"><g transform="translate(256.28526, 136.007295)"><g><path d="M 19.390625 4.863281 L 13.496094 -4.457031 C 12.683594 -5.738281 10.972656 -6.125 9.691406 -5.316406 L 2.699219 -0.890625 C 1.417969 -0.0820312 1.03125 1.632812 1.84375 2.914062 L 7.738281 12.234375 L 10.070312 10.761719 L 4.171875 1.4375 L 6.503906 -0.0351562 L 12.402344 9.285156 L 14.730469 7.8125 L 8.835938 -1.507812 L 11.164062 -2.984375 L 17.0625 6.335938 Z M 19.390625 4.863281 "/></g></g></g><g fill="#545454" fill-opacity="1"><g transform="translate(264.687851, 149.400666)"><g><path d="M 4.359375 10.878906 C 4.921875 12.289062 6.535156 12.976562 7.945312 12.414062 L 15.621094 9.335938 C 17.03125 8.773438 17.722656 7.160156 17.15625 5.753906 L 13.054688 -4.488281 L 0.257812 0.640625 Z M 11.519531 -0.902344 L 14.597656 6.777344 L 6.917969 9.855469 L 3.839844 2.175781 Z M 11.519531 -0.902344 "/></g></g></g><g fill="#545454" fill-opacity="1"><g transform="translate(270.338193, 164.397964)"><g/></g></g></svg>